<?xml version="1.0" encoding="UTF-8" standalone="no"?>
<!-- Created with Inkscape (http://www.inkscape.org/) -->

<svg
   version="1.1"
   id="svg2"
   xml:space="preserve"
   width="262.56934"
   height="78.236"
   viewBox="0 0 262.56933 78.236"
   sodipodi:docname="ccf28ff78052d6ec925ca386a84a8884.eps"
   xmlns:inkscape="http://www.inkscape.org/namespaces/inkscape"
   xmlns:sodipodi="http://sodipodi.sourceforge.net/DTD/sodipodi-0.dtd"
   xmlns="http://www.w3.org/2000/svg"
   xmlns:svg="http://www.w3.org/2000/svg"><defs
     id="defs6" /><sodipodi:namedview
     id="namedview4"
     pagecolor="#ffffff"
     bordercolor="#666666"
     borderopacity="1.0"
     inkscape:pageshadow="2"
     inkscape:pageopacity="0.0"
     inkscape:pagecheckerboard="0" /><g
     id="g8"
     inkscape:groupmode="layer"
     inkscape:label="ink_ext_XXXXXX"
     transform="matrix(1.3333333,0,0,-1.3333333,0,78.235998)"><g
       id="g10"
       transform="scale(0.1)"><path
         d="M 314.063,586.77 H 1404.82 V 476.211 H 314.063 v 110.559 0 0 0"
         style="fill:#da1737;fill-opacity:1;fill-rule:nonzero;stroke:none"
         id="path12" /><path
         d="M 314.063,363.184 V 260.781 h 194.218 c 0,0 0.059,19.785 0.059,21.809 0,1.98 -1.27,2.762 -2.832,2.801 -1.524,0.058 -127.227,0 -127.227,0 l 0.039,36.632 h 110.274 c 0,0 0,19.668 0,21.493 0,1.847 -1.016,2.863 -2.852,2.863 -1.816,0 -107.422,0 -107.422,0 v 37.449 h 129.961 c 0,0 0,19.817 0,21.789 0,1.981 -1.269,2.567 -2.832,2.567 -1.523,0 -146.679,0 -146.679,0 -24.786,0 -44.707,-20.157 -44.707,-45 v 0 0 0"
         style="fill:#231f20;fill-opacity:1;fill-rule:nonzero;stroke:none"
         id="path14" /><path
         d="m 579.375,408.184 c 0,0 146.492,0 148.328,0 1.84,0 2.895,-0.711 2.895,-2.579 0,-1.835 0,-21.738 0,-21.738 H 598.711 v -96.172 h 106.465 v 34.336 h -65.84 c 0,0 0,20 0,21.516 0,1.473 1.055,2.781 2.969,2.781 16.484,0 84.035,0.039 85.383,0.039 1.5,0 2.91,-1.289 2.91,-2.851 0,-1.563 0,-82.735 0,-82.735 H 534.59 v 102.403 c 0,24.843 20.058,45 44.785,45 v 0 0 0"
         style="fill:#231f20;fill-opacity:1;fill-rule:nonzero;stroke:none"
         id="path16" /><path
         d="m 805.09,408.184 c 0,0 146.48,0 148.34,0 1.812,0 2.871,-0.711 2.871,-2.579 0,-1.835 0,-21.738 0,-21.738 h -131.86 l -0.015,-96.172 h 106.465 v 34.336 h -65.825 c 0,0 0.039,19.992 0.039,21.485 0,1.484 1,2.812 2.891,2.812 16.508,0 84.067,0.039 85.41,0.039 1.489,0 2.895,-1.289 2.895,-2.851 0,-1.551 0,-82.735 0,-82.735 H 760.305 v 102.414 c 0,24.852 20.054,44.989 44.785,44.989 v 0 0 0"
         style="fill:#231f20;fill-opacity:1;fill-rule:nonzero;stroke:none"
         id="path18" /><path
         d="M 986.184,363.184 V 260.781 h 194.276 c 0,0 0,19.805 0,21.809 0,1.98 -1.27,2.762 -2.83,2.801 -1.52,0.058 -127.25,0 -127.25,0 l 0.04,36.64 h 110.28 c 0,0 0,19.66 0,21.485 0,1.847 -1,2.871 -2.83,2.871 -1.82,0 -107.45,0 -107.45,0 v 37.441 h 129.99 c 0,0 0,19.817 0,21.797 0,1.973 -1.27,2.559 -2.84,2.559 -1.52,0 -146.7,0 -146.7,0 -24.77,0 -44.686,-20.157 -44.686,-45 v 0 0 0"
         style="fill:#231f20;fill-opacity:1;fill-rule:nonzero;stroke:none"
         id="path20" /><path
         d="m 0,408.184 h 213.926 v -27.5 H 100.313 V 348.516 H 213.926 V 320.137 H 100.82 V 288.164 H 213.926 V 260.781 L 0,260.793 v 147.391 0 0"
         style="fill:#da1737;fill-opacity:1;fill-rule:nonzero;stroke:none"
         id="path22" /><path
         d="m 1366.09,408.176 c 21.37,0 38.69,-21.594 38.69,-43.067 0,-21.476 -17.42,-43.078 -38.83,-43.078 h -17.44 l 66.02,-56.023 c 0,0 6.54,-5.227 -0.37,-5.227 -3.68,0 -57.41,0 -70.18,0 -2.91,-0.058 -4.28,1.699 -7.23,4.082 2.33,-1.582 -66.03,57.168 -66.03,57.168 v -61.25 h -64.08 v 102.403 c 0,24.843 19.94,44.992 44.66,44.992 h 114.79 z m -8.79,-61.926 c 6.84,0 16.58,7.078 16.58,18.789 0,12.969 -9.16,18.723 -16.58,18.723 h -86.58 v -37.52 l 86.58,0.067 v 0 -0.059"
         style="fill:#231f20;fill-opacity:1;fill-rule:evenodd;stroke:none"
         id="path24" /><path
         d="M 880.613,1.38672 870.398,111.934 H 836.531 L 820.852,47.5898 h -0.161 L 806.184,111.934 H 771.16 L 760.305,1.38672 h 28.765 l 2.676,67.44138 h 0.141 L 807.449,1.38672 h 24.281 l 17.34,67.30468 h 0.293 L 852.82,1.38672 h 27.793 v 0 0"
         style="fill:#706d6e;fill-opacity:1;fill-rule:nonzero;stroke:none"
         id="path26" /><path
         d="m 1424.57,32.9688 v 79.0002 h -18.4 V 38.2383 c 0,-14.711 -6.59,-22.5547 -20.04,-22.5547 -13.62,0 -19.69,5.6055 -19.69,22.5547 v 73.7307 h -18.57 V 32.8125 C 1347.87,15.0508 1357.01,0 1386.13,0 c 24.35,0 38.44,12.6563 38.44,32.9688 v 0 0"
         style="fill:#706d6e;fill-opacity:1;fill-rule:nonzero;stroke:none"
         id="path28" /><path
         d="m 1519.66,35.1602 c 0,16.4726 -11.21,26.6015 -27.22,31.1914 l -13.13,3.8047 c -10.9,3.1679 -14.74,6.6445 -14.74,13.457 0,9.0195 7.2,14.8789 18.1,14.8789 8.81,0 15.86,-2.375 26.09,-8.3984 l 8.34,12.8402 c -9.76,6.804 -22.42,10.449 -35.07,10.449 -22.27,0 -37.66,-13.153 -37.66,-32.4689 0,-6.3243 1.6,-11.5469 4.65,-15.9805 4.16,-6.1797 11.37,-10.3047 21.46,-13.1406 l 11.88,-3.3321 c 11.37,-3.1718 16.48,-8.2421 16.48,-16.3086 0,-10.9375 -8.18,-17.414 -21.77,-17.414 -11.24,0 -20.02,3.3281 -29.97,9.0234 L 1440.05,9.82422 C 1450.95,3.32422 1463.76,0 1476.42,0 c 28.34,0 43.24,16.9492 43.24,35.1602 v 0 0"
         style="fill:#706d6e;fill-opacity:1;fill-rule:nonzero;stroke:none"
         id="path30" /><path
         d="m 1755.02,53.3242 c 0,-18.1133 -2.59,-26.9219 -8.08,-33.8398 -5.01,-6.2461 -11.66,-9.4531 -20.71,-9.4531 -9.05,0 -19.41,4.8125 -23.63,11.8632 -4.35,7.3828 -7.11,21.8008 -7.11,38.3321 0,13.6406 1.78,23.0937 5.68,30.3164 4.19,7.8515 13.4,12.812 23.77,12.812 12.78,0 20.87,-6.8862 24.74,-15.062 3.72,-7.6914 5.34,-18.7696 5.34,-34.9688 z m 14.82,1.5625 c 0,17.6289 -3.09,30.4805 -10.03,40.7227 -5.35,7.8516 -15.74,17.7736 -35.01,17.7736 -27.33,0 -44.1,-21.2932 -44.1,-56.2502 0,-18.7383 4.53,-33.6562 13.26,-43.6055 C 1701.4,5.03125 1711.92,0 1725.52,0 c 11.48,0 19.9,2.77734 28.14,10.1602 11.32,10.2617 16.18,23.5664 16.18,44.7265 v 0 0"
         style="fill:#706d6e;fill-opacity:1;fill-rule:evenodd;stroke:none"
         id="path32" /><path
         d="M 972.914,1.38672 V 25.2188 H 934.73 l 0.02,21.7695 h 27.785 V 69.6875 H 934.75 V 88.418 h 34.016 l 2.07,23.52 H 906.137 V 1.38672 h 66.777 v 0 0"
         style="fill:#706d6e;fill-opacity:1;fill-rule:nonzero;stroke:none"
         id="path34" /><path
         d="M 1075.82,1.38672 V 111.938 h -28.68 V 70.9727 h -22.89 V 111.938 H 995.582 V 1.38672 h 28.668 V 47.2969 h 22.89 l 0.02,-45.91018 h 28.66 v 0 0"
         style="fill:#706d6e;fill-opacity:1;fill-rule:nonzero;stroke:none"
         id="path36" /><path
         d="m 1161.83,77.8945 c 0,-7.5312 -5.43,-12.1992 -15.17,-12.1992 h -14.11 l -0.05,25.5508 13.86,-0.0195 c 8.95,0 15.47,-4.3594 15.47,-12.3633 z M 1190.4,1.38672 c -3.69,8.30469 -13.1,28.95708 -16.78,36.46878 -2.71,5.7578 -7.35,10.8867 -11.18,12.0117 13.09,2.2344 23.16,11.5195 23.16,30.7031 0,18.582 -10.54,31.3677 -43.29,31.3677 h -38.34 V 1.38672 h 28.6 V 45.5391 c 6.23,0 8.78,-1.4258 13.09,-12.961 l 11.67,-31.19138 h 33.07 v 0 0"
         style="fill:#706d6e;fill-opacity:1;fill-rule:evenodd;stroke:none"
         id="path38" /><path
         d="m 1304.12,45.875 h -27.23 c 2.56,7.3516 13.91,48.0039 13.91,48.0039 h 0.19 c 0.78,-4.332 11.99,-45.6172 13.13,-48.0039 z m 33.3,-44.48828 -35.39,110.55128 h -21.31 L 1244.37,1.38672 h 19.04 l 8.99,29.11718 h 35.88 l 8.96,-29.11718 h 20.18 v 0 0"
         style="fill:#706d6e;fill-opacity:1;fill-rule:evenodd;stroke:none"
         id="path40" /><path
         d="M 1657.89,1.38672 V 111.938 h -13.38 l 0.07,-46.2544 h -46.87 l -0.02,46.2544 h -12.93 V 1.38672 h 12.93 l 0.02,53.43358 h 46.87 l -0.07,-53.43358 h 13.38 v 0 0"
         style="fill:#706d6e;fill-opacity:1;fill-rule:nonzero;stroke:none"
         id="path42" /><path
         d="m 1850.72,12.1602 h -43.97 l -0.02,99.7778 h -13.22 V 1.38672 h 55.45 l 1.76,10.77348 v 0 0"
         style="fill:#706d6e;fill-opacity:1;fill-rule:nonzero;stroke:none"
         id="path44" /><path
         d="m 1931.6,12.7188 h -44.12 c -5.02,0 -9.48,-0.1563 -9.48,-0.1563 0,0 3.03,3.957 6.74,10.2813 l 46.27,77.7652 v 11.329 h -63.51 l -3.72,-11.172 h 41.53 c 6.79,0 11.48,0.164 11.48,0.164 0,0 -2.83,-3.5511 -7.05,-10.5042 L 1862.2,11.5938 V 1.38672 h 66.1 l 3.32,10.91798 -0.02,0.4141 v 0"
         style="fill:#706d6e;fill-opacity:1;fill-rule:nonzero;stroke:none"
         id="path46" /><path
         d="m 1969.27,11.1875 c 0,6 -4.84,10.7109 -11.01,10.7109 -6.02,0 -10.71,-4.7109 -10.71,-10.7109 0,-6.15625 4.87,-11.1875 11.04,-11.1875 5.84,0 10.68,5.03125 10.68,11.1875 v 0 0"
         style="fill:#706d6e;fill-opacity:1;fill-rule:nonzero;stroke:none"
         id="path48" /></g></g></svg>
